<svg width="99" height="40" viewBox="0 0 99 40" fill="none" xmlns="http://www.w3.org/2000/svg">
<path d="M89.0783 17.784L96.8318 9.55387C96.8726 9.50734 96.9023 9.45213 96.9186 9.39242C96.9348 9.33272 96.9373 9.27009 96.9258 9.2093C96.9142 9.1485 96.889 9.09113 96.852 9.04154C96.815 8.99195 96.7671 8.95144 96.7121 8.92309C96.2356 8.57317 95.2848 7.55793 94.9487 7.9608L87.1952 17.266C87.1548 17.3127 87.1255 17.3679 87.1095 17.4275C87.0935 17.4872 87.0911 17.5496 87.1026 17.6103C87.1142 17.6709 87.1392 17.7282 87.176 17.7778C87.2127 17.8274 87.2602 17.8681 87.3149 17.8968C87.7937 18.2467 88.7468 18.1868 89.0783 17.784Z" fill="#E3000F"/>
<path d="M87.1975 17.9428L94.9487 27.2572C95.2825 27.6601 96.2356 28.795 96.7122 28.4451C96.7672 28.4167 96.815 28.3762 96.852 28.3266C96.889 28.277 96.9143 28.2197 96.9258 28.1589C96.9373 28.0981 96.9349 28.0355 96.9186 27.9757C96.9023 27.916 96.8727 27.8608 96.8319 27.8143L89.0806 17.4248C88.7445 17.022 87.7937 16.9644 87.3172 17.312C87.2622 17.3404 87.2144 17.3809 87.1774 17.4305C87.1403 17.4801 87.1151 17.5374 87.1036 17.5982C87.092 17.659 87.0945 17.7217 87.1108 17.7814C87.127 17.8411 87.1567 17.8963 87.1975 17.9428V17.9428Z" fill="#E3000F"/>
<path d="M67.7975 25.192H57.7833V17.5328H66.6925V15.7418H57.7833V9.04262H67.2565V7.22625H55.1773V27.0084H67.7975V25.192ZM35.4504 9.07715C36.6135 8.89808 37.789 8.8111 38.9658 8.81701C45.1815 8.81701 48.5035 11.5957 48.5035 16.734C48.5035 22.3949 44.9582 25.4314 38.4938 25.4314C37.4777 25.4479 36.4615 25.4048 35.4504 25.3025V9.07715ZM32.8467 26.9623C34.5679 27.1193 36.296 27.1885 38.0242 27.1695C42.3844 27.1695 45.8675 26.1842 47.9694 24.3932C50.2208 22.4456 51.2223 19.7659 51.2223 16.6235C51.2223 11.7683 48.4597 7.0697 38.8622 7.0697C36.8478 7.0735 34.8359 7.21117 32.8398 7.48178L32.8467 26.9623ZM27.5104 7.22625H25.0287V15.8454C25.0287 18.9602 25.0909 21.3221 25.3418 24.0755L25.2797 24.1008C24.1815 22.0496 22.8003 19.9984 21.1059 17.6364L13.3892 7.22625H10.6589V27.0084H13.106V18.2856C13.106 14.8486 13.0761 12.5465 12.8551 10.0302L12.9817 10.0049C14.1328 12.185 15.6798 14.3789 17.2798 16.5982L24.9021 27.0084H27.5104V7.22625Z" fill="white"/>
<path d="M5.51819 2.35737C5.51819 3.66037 4.28195 4.71705 2.75564 4.71705C1.22933 4.71705 0 3.66037 0 2.35737C0 1.05437 1.23624 0 2.75794 0C4.27964 0 5.51819 1.05667 5.51819 2.35737Z" fill="#E3000F"/>
<path d="M0.697513 24.0366V8.13587C0.698725 8.02311 0.744373 7.91537 0.824544 7.83606C0.904715 7.75675 1.01294 7.71227 1.12571 7.71228H4.39242C4.50598 7.71228 4.6149 7.75739 4.6952 7.8377C4.7755 7.918 4.82061 8.02691 4.82061 8.14048V27.1744C4.82062 27.2882 4.77558 27.3973 4.69534 27.478C4.6151 27.5587 4.50619 27.6043 4.39242 27.6049H4.2589C3.79071 27.6046 3.32718 27.5121 2.89478 27.3325C2.46237 27.153 2.06958 26.8901 1.73885 26.5587C1.40811 26.2273 1.14592 25.834 0.96724 25.4013C0.788562 24.9685 0.696908 24.5048 0.697513 24.0366V24.0366Z" fill="white"/>
<path d="M77.8601 17.7838L70.0996 8.46939C70.0593 8.42267 70.03 8.36744 70.014 8.30782C69.998 8.2482 69.9956 8.18573 70.0071 8.12508C70.0186 8.06443 70.0437 8.00716 70.0805 7.95755C70.1172 7.90795 70.1647 7.86728 70.2194 7.8386C70.6982 7.48868 71.649 7.54854 71.9828 7.95141L79.7432 17.2658C79.7836 17.3125 79.8129 17.3677 79.8289 17.4274C79.8449 17.487 79.8473 17.5495 79.8358 17.6101C79.8242 17.6708 79.7992 17.728 79.7624 17.7776C79.7257 17.8272 79.6782 17.8679 79.6235 17.8966C79.147 18.2465 78.1939 18.1866 77.8601 17.7838Z" fill="white"/>
<path d="M79.7432 17.9428L71.9897 27.2572C71.6559 27.6601 70.7051 27.7176 70.2262 27.37C70.1716 27.3413 70.1241 27.3007 70.0873 27.251C70.0506 27.2014 70.0255 27.1442 70.014 27.0835C70.0025 27.0229 70.0049 26.9604 70.0209 26.9008C70.0369 26.8412 70.0662 26.7859 70.1065 26.7392L77.8601 17.4248C78.1939 17.022 79.1447 16.9644 79.6235 17.312C79.6782 17.3407 79.7257 17.3814 79.7624 17.431C79.7992 17.4806 79.8242 17.5378 79.8357 17.5985C79.8473 17.6591 79.8449 17.7216 79.8289 17.7812C79.8129 17.8409 79.7836 17.8961 79.7432 17.9428" fill="white"/>
<path d="M81.8957 17.7838L74.1422 8.46939C74.1014 8.42285 74.0717 8.36764 74.0554 8.30794C74.0392 8.24823 74.0367 8.18561 74.0483 8.12481C74.0598 8.06402 74.085 8.00665 74.122 7.95706C74.159 7.90747 74.2069 7.86696 74.2619 7.8386C74.7384 7.48868 75.6915 7.54854 76.0253 7.95141L83.7789 17.2658C83.8192 17.3125 83.8485 17.3677 83.8645 17.4274C83.8805 17.487 83.8829 17.5495 83.8714 17.6101C83.8599 17.6708 83.8348 17.728 83.798 17.7776C83.7613 17.8272 83.7138 17.8679 83.6591 17.8966C83.1803 18.2465 82.2295 18.1866 81.8957 17.7838Z" fill="white"/>
<path d="M83.7788 17.9428L76.0252 27.2572C75.6914 27.6601 74.7406 27.7176 74.2618 27.37C74.2071 27.3413 74.1597 27.3007 74.1229 27.251C74.0862 27.2014 74.0611 27.1442 74.0496 27.0835C74.0381 27.0229 74.0404 26.9604 74.0564 26.9008C74.0724 26.8412 74.1017 26.7859 74.1421 26.7392L81.8956 17.4248C82.2294 17.022 83.1802 16.9644 83.6591 17.312C83.7137 17.3407 83.7612 17.3814 83.798 17.431C83.8347 17.4806 83.8598 17.5378 83.8713 17.5985C83.8828 17.6591 83.8805 17.7216 83.8644 17.7812C83.8484 17.8409 83.8191 17.8961 83.7788 17.9428" fill="white"/>
<path d="M86.7117 18.6563L78.2307 8.46939C78.1904 8.42267 78.1611 8.36744 78.145 8.30782C78.129 8.2482 78.1267 8.18573 78.1382 8.12508C78.1497 8.06442 78.1748 8.00716 78.2115 7.95755C78.2483 7.90795 78.2958 7.86728 78.3504 7.8386C78.8293 7.48868 79.78 7.54854 80.1139 7.95141L88.1483 17.6111L86.7117 18.6563Z" fill="white"/>
<path d="M88.1483 17.6111L80.1139 27.257C79.78 27.6598 78.8293 27.7174 78.3504 27.3698C78.2958 27.3411 78.2483 27.3004 78.2115 27.2508C78.1748 27.2012 78.1497 27.144 78.1382 27.0833C78.1267 27.0227 78.129 26.9602 78.145 26.9006C78.1611 26.8409 78.1904 26.7857 78.2307 26.739L86.7117 16.5498L88.1483 17.6111Z" fill="white"/>
<path d="M55.2394 34.633H54.5925C54.3049 34.6259 54.0185 34.672 53.7476 34.7689C53.5174 34.8586 53.4 35.0935 53.3931 35.4733C53.3931 36.0258 53.7384 36.3044 54.4267 36.3044H55.2394V34.633ZM51.5675 39.8796V38.8482C51.6487 38.8519 51.7297 38.8381 51.8051 38.808C51.8805 38.7778 51.9486 38.7319 52.0049 38.6733C52.0855 38.5433 52.1586 38.4088 52.2236 38.2704C52.3437 37.9888 52.5026 37.7253 52.6955 37.4877C52.8738 37.2984 53.096 37.1561 53.3424 37.0733C52.976 36.9837 52.6349 36.8112 52.3456 36.5691C52.0417 36.3228 51.8852 35.9314 51.899 35.395C51.9031 34.9282 52.0803 34.4795 52.3963 34.1358C52.7186 33.779 53.3033 33.6017 54.1551 33.6017H56.5861V39.845H55.2394V37.3887H54.924C54.703 37.3777 54.4847 37.4418 54.3047 37.5705C54.1347 37.7408 54.0008 37.9436 53.9111 38.1668C53.7016 38.64 53.4307 39.0835 53.1053 39.4859C52.9821 39.6375 52.828 39.7613 52.6534 39.849C52.4788 39.9367 52.2876 39.9864 52.0924 39.9947C51.9106 40.0001 51.7303 39.9606 51.5675 39.8796V39.8796ZM47.3868 37.4923H48.8993L48.1212 35.5263L47.3868 37.4923ZM46.984 38.5605L46.5028 39.845H45.1216L47.4743 33.6017H48.7589L51.1554 39.845H49.7741L49.2493 38.5328L46.984 38.5605ZM39.9556 39.845V33.6017H41.2839V35.9545C41.4725 35.9976 41.6702 35.974 41.8433 35.8877C42.0085 35.7561 42.1403 35.5873 42.2278 35.395C42.2938 35.288 42.3522 35.1764 42.4027 35.0612C42.6089 34.5893 42.881 34.1491 43.2108 33.7536C43.3077 33.6567 43.423 33.5801 43.5499 33.5283C43.6768 33.4765 43.8127 33.4506 43.9498 33.4521C44.1456 33.4527 44.3403 33.4822 44.5276 33.5395V34.5548C44.4629 34.5401 44.3959 34.5387 44.3306 34.5505C44.2654 34.5624 44.2032 34.5873 44.1478 34.6238C44.0311 34.7265 43.9323 34.8479 43.8554 34.983C43.807 35.0589 43.738 35.1786 43.6459 35.3421C43.5538 35.5055 43.464 35.6506 43.4525 35.6736C43.401 35.7862 43.3361 35.8921 43.2591 35.989C43.0961 36.2176 42.8672 36.391 42.603 36.4863C42.8773 36.5602 43.1199 36.7219 43.2937 36.9467C43.4988 37.2686 43.6745 37.6084 43.8185 37.9619C43.8397 37.9917 43.8568 38.0242 43.8692 38.0586L43.9314 38.199C44.0115 38.3815 44.1255 38.5471 44.2675 38.6871C44.397 38.7924 44.5612 38.8458 44.7279 38.8367V39.8681C44.5696 39.9336 44.4016 39.9725 44.2306 39.9832C43.9761 39.9976 43.7247 39.9209 43.5216 39.7668C43.2272 39.5064 42.9917 39.1862 42.8309 38.8275L42.7227 38.5789C42.6836 38.4937 42.6468 38.4108 42.6076 38.3303C42.5685 38.2497 42.5317 38.1668 42.4902 38.0839C42.2922 37.6764 42.1633 37.4209 42.1058 37.3196C42.0369 37.215 41.9371 37.1345 41.8203 37.0894C41.6457 37.0263 41.4579 37.0089 41.2747 37.0388V39.845H39.9556ZM38.7907 34.32L38.1185 35.1418C37.6351 34.7167 37.1508 34.5364 36.6659 34.6008C36.4544 34.6355 36.2513 34.7097 36.0673 34.8195C35.8169 34.9762 35.6176 35.2027 35.4941 35.471C35.3158 35.8641 35.2367 36.2949 35.2639 36.7257C35.2792 37.4531 35.4327 37.9642 35.7243 38.2589C35.9721 38.5339 36.3055 38.7172 36.6705 38.7792C37.2107 38.8666 37.7348 38.6249 38.2428 38.054L38.9956 38.7193C38.3065 39.5634 37.49 39.9862 36.5461 39.9878C36.022 39.9953 35.5066 39.8523 35.0613 39.5757C34.6142 39.2918 34.2567 38.8871 34.0299 38.4085C33.7761 37.8902 33.6498 37.3188 33.6616 36.7418C33.68 35.6537 33.9977 34.8318 34.6147 34.2762C35.1885 33.7402 35.9451 33.443 36.7303 33.4451C37.1296 33.4405 37.5255 33.5189 37.8929 33.6754C38.2354 33.8256 38.5416 34.0478 38.7907 34.3269V34.32ZM29.6881 36.7418H30.2936C30.5929 36.7611 30.8894 36.6748 31.1316 36.4978C31.2373 36.399 31.3197 36.2779 31.3726 36.1433C31.4256 36.0087 31.4479 35.864 31.4377 35.7196C31.4669 34.9906 31.0832 34.6261 30.2867 34.6261H29.6904L29.6881 36.7418ZM29.6881 37.81V39.8381H28.3069V33.6017H30.2314C31.117 33.6017 31.7999 33.7552 32.2803 34.0621C32.7607 34.3691 32.9909 34.9285 32.971 35.7404C32.9556 37.1216 32.1077 37.8123 30.4271 37.8123L29.6881 37.81ZM26.9785 34.6469H24.4853V36.1156H26.5757V37.2091H24.4853V38.8344H27.2939V39.8497H23.1133V33.6017H26.9785V34.6469ZM18.7853 38.8229H19.2227C19.5437 38.8305 19.8623 38.766 20.155 38.6341C20.4129 38.5075 20.5326 38.2244 20.5096 37.78C20.4842 37.4025 20.3599 37.1539 20.132 37.0388C19.8699 36.9141 19.5818 36.8542 19.2917 36.8638H18.7853V38.8229ZM17.4201 33.6017H18.7853V35.7979H19.7061C20.0163 35.7949 20.3256 35.8305 20.627 35.9038C20.8947 35.9727 21.1465 36.0932 21.3683 36.2583C21.5936 36.4213 21.7754 36.6371 21.8977 36.8868C22.0328 37.1705 22.099 37.4821 22.0911 37.7962C22.108 38.542 21.8977 39.07 21.4603 39.38C20.9252 39.7147 20.2995 39.8755 19.6693 39.8404H17.4201V33.6017ZM13.1013 36.7487H13.6976C13.9976 36.768 14.2949 36.6817 14.5379 36.5047C14.644 36.4061 14.727 36.2851 14.7808 36.1506C14.8345 36.016 14.8577 35.8712 14.8486 35.7265C14.8763 34.9975 14.4926 34.633 13.6976 34.633H13.1013V36.7487ZM13.1013 37.8169V39.845H11.7201V33.6017H13.6515C14.5386 33.6017 15.2224 33.7552 15.7027 34.0621C16.1831 34.3691 16.4133 34.9285 16.3934 35.7404C16.3765 37.1216 15.5285 37.8123 13.8495 37.8123L13.1013 37.8169ZM8.4027 36.5392L9.45017 33.6017H10.8061L9.17161 38.0264C8.99979 38.56 8.7399 39.0611 8.4027 39.5089C8.25993 39.6783 8.07853 39.8108 7.87379 39.8954C7.66905 39.9799 7.44698 40.014 7.22632 39.9947C7.0271 39.9773 6.8303 39.9387 6.63928 39.8796V38.8482C6.75027 38.8797 6.86469 38.8975 6.97999 38.9012C7.06945 38.9061 7.15891 38.8913 7.24204 38.8579C7.32518 38.8245 7.39997 38.7733 7.46114 38.7078C7.60759 38.5243 7.71493 38.3128 7.77653 38.0862L5.52045 33.6017H6.96388L8.4027 36.5392ZM0.345276 39.845V33.6017H1.6736V35.9545C1.86218 35.9976 2.05989 35.974 2.23302 35.8877C2.39821 35.7561 2.52994 35.5873 2.61747 35.395C2.68346 35.288 2.74192 35.1764 2.79243 35.0612C2.99859 34.5893 3.27065 34.1491 3.60048 33.7536C3.69736 33.6567 3.81264 33.5801 3.93954 33.5283C4.06644 33.4765 4.20241 33.4506 4.33946 33.4521C4.5353 33.4529 4.72996 33.4824 4.91729 33.5395V34.5548C4.85259 34.5401 4.78559 34.5387 4.72032 34.5505C4.65505 34.5624 4.59284 34.5873 4.53744 34.6238C4.42078 34.7265 4.32198 34.8479 4.24507 34.983C4.19673 35.0589 4.12766 35.1786 4.03328 35.3421C3.93889 35.5055 3.85371 35.6506 3.8422 35.6736C3.78985 35.7857 3.72498 35.8915 3.64882 35.989C3.48609 36.2184 3.25718 36.3927 2.99272 36.4886C3.26703 36.5625 3.5096 36.7242 3.68335 36.949C3.88849 37.2705 4.06343 37.6104 4.20593 37.9642C4.22816 37.9937 4.246 38.0263 4.25888 38.0609L4.32104 38.2013C4.40118 38.3838 4.51524 38.5494 4.65715 38.6894C4.78671 38.7947 4.95084 38.8481 5.11757 38.839V39.8704C4.95931 39.9359 4.79129 39.9748 4.62032 39.9855C4.36576 39.9999 4.11439 39.9232 3.91126 39.7691C3.61686 39.5087 3.3814 39.1885 3.22063 38.8298C3.18686 38.7485 3.15003 38.6656 3.11012 38.5812C3.07329 38.496 3.03646 38.4131 2.99732 38.3326C2.95818 38.252 2.92135 38.1691 2.87991 38.0862C2.68193 37.6788 2.55301 37.4232 2.49546 37.3219C2.42606 37.2178 2.32643 37.1375 2.20999 37.0917C2.03542 37.0286 1.8476 37.0112 1.66439 37.0411V39.8473L0.345276 39.845Z" fill="white"/>
<path d="M94.8152 37.4925H96.3277L95.5496 35.5265L94.8152 37.4925ZM94.4124 38.5607L93.9312 39.8453H92.5499L94.9027 33.6019H96.1873L98.5838 39.8453H97.2025L96.6776 38.5331L94.4124 38.5607ZM88.5028 36.8802V38.8232H89.3753C89.6567 38.8406 89.9362 38.7663 90.1718 38.6114C90.2734 38.5214 90.3524 38.4091 90.4028 38.2831C90.4532 38.1572 90.4734 38.0213 90.4619 37.8862C90.4734 37.2163 90.1189 36.8802 89.4029 36.8802H88.5028ZM88.5028 34.6333V35.7982H89.7183C90.2608 35.8053 90.7939 35.9402 91.2746 36.1918C91.7994 36.4543 92.0573 37.0137 92.0527 37.8701C92.0527 38.616 91.8017 39.1309 91.2999 39.4148C90.8165 39.6943 90.2675 39.8405 89.7091 39.8384H87.1353V33.6019H91.3597V34.6471L88.5028 34.6333ZM81.532 39.8453V37.039C81.3696 37.0093 81.2019 37.0319 81.0531 37.1035C80.9342 37.1657 80.8364 37.2618 80.7723 37.3797C80.7078 37.4948 80.5904 37.7343 80.4224 38.0957C80.3878 38.1786 80.351 38.2591 80.3142 38.342C80.2773 38.4249 80.2382 38.5055 80.1991 38.5906C80.1599 38.6758 80.1231 38.7587 80.0816 38.8393C79.9296 39.1957 79.7027 39.5152 79.4163 39.7762C79.2082 39.9328 78.9512 40.0103 78.6912 39.9949C78.52 39.9854 78.3518 39.9464 78.1939 39.8798V38.8485C78.361 38.8545 78.5246 38.7997 78.6543 38.6942C78.7942 38.5573 78.904 38.3926 78.9766 38.2108C79.0197 38.1379 79.0552 38.0607 79.0825 37.9806C79.2359 37.626 79.42 37.2855 79.6327 36.963C79.8065 36.7383 80.0491 36.5765 80.3234 36.5026C80.0505 36.4144 79.81 36.2469 79.6327 36.0215C79.5617 35.9186 79.4978 35.8109 79.4417 35.6992L79.3841 35.591C79.3641 35.5526 79.3434 35.5158 79.3219 35.4805L79.2575 35.3746C79.1631 35.2249 79.094 35.1075 79.048 35.0247C78.9711 34.8803 78.868 34.7515 78.7441 34.6448C78.6915 34.6098 78.6323 34.5861 78.5701 34.575C78.5079 34.5639 78.4441 34.5657 78.3827 34.5803V33.5398C78.4238 33.5369 78.4646 33.5307 78.5047 33.5214L78.6221 33.4914C78.649 33.4831 78.6769 33.4784 78.705 33.4776C78.7579 33.4776 78.8454 33.4776 78.9674 33.4776C79.1041 33.4781 79.2392 33.5063 79.3646 33.5605C79.49 33.6148 79.6032 33.6938 79.6972 33.793C80.0276 34.1834 80.3005 34.6191 80.5075 35.0868C80.5591 35.2015 80.6176 35.3129 80.6825 35.4206C80.7362 35.5148 80.7946 35.6063 80.8575 35.6946C80.91 35.7733 80.9763 35.8419 81.0531 35.8972C81.1184 35.9395 81.191 35.9692 81.2672 35.9846C81.351 35.9995 81.4367 35.9995 81.5205 35.9846V33.6019H82.8511V35.9547C82.9324 35.9756 83.0171 35.9794 83.0999 35.9659C83.1827 35.9525 83.2618 35.922 83.3322 35.8764C83.4811 35.7384 83.605 35.5756 83.6983 35.3953C83.7274 35.3477 83.7528 35.304 83.7742 35.2641C83.7927 35.2226 83.8272 35.1559 83.8732 35.0615C84.0393 34.7117 84.2309 34.3747 84.4465 34.0532C84.5639 33.8631 84.7209 33.7005 84.9069 33.5766C85.0619 33.4914 85.2365 33.4485 85.4134 33.4523C85.5262 33.4523 85.6067 33.4523 85.6597 33.4523C85.6923 33.4536 85.7247 33.4582 85.7564 33.4661C85.7955 33.4661 85.8346 33.4845 85.8692 33.496C85.9093 33.5054 85.9501 33.5116 85.9912 33.5145V34.555C85.8733 34.5273 85.7492 34.5472 85.6459 34.6103C85.5197 34.722 85.4124 34.8534 85.3282 34.9993C85.2798 35.0822 85.2108 35.1996 85.1164 35.3493C85.0996 35.3862 85.0796 35.4217 85.0565 35.4551C85.0324 35.4908 85.0101 35.5277 84.9898 35.5657C84.969 35.6025 84.9483 35.6393 84.9253 35.6739C84.8739 35.7867 84.8122 35.8945 84.7411 35.9961C84.5677 36.2175 84.3344 36.3845 84.0689 36.4773C84.346 36.5619 84.5883 36.7339 84.7596 36.9676C84.965 37.2826 85.14 37.6164 85.2821 37.9645C85.3033 37.9943 85.3203 38.0268 85.3328 38.0612L85.3949 38.2016C85.4676 38.3834 85.5773 38.5481 85.7172 38.685C85.8462 38.7918 86.0104 38.8468 86.1777 38.8393V39.8706C86.0224 39.9379 85.8563 39.9769 85.6873 39.9857C85.4328 39.9997 85.1816 39.9231 84.9783 39.7693C84.6839 39.5089 84.4484 39.1887 84.2876 38.8301C84.2301 38.7081 84.1771 38.5999 84.1311 38.4893C84.085 38.3788 84.0206 38.2591 83.9377 38.0865C83.8341 37.8425 83.7512 37.6583 83.6891 37.5363C83.6361 37.4264 83.5696 37.3235 83.4911 37.2301C83.4197 37.1485 83.3286 37.0866 83.2263 37.0505C83.0973 37.0112 82.9605 37.0041 82.8281 37.0298V39.8361L81.532 39.8453ZM75.3945 36.5395L76.4443 33.6019H77.8002L76.1657 38.0266C75.9918 38.5607 75.7296 39.0618 75.3899 39.5092C75.2474 39.6782 75.0664 39.8105 74.862 39.8951C74.6577 39.9796 74.4361 40.0138 74.2158 39.9949C74.0166 39.9776 73.8198 39.939 73.6288 39.8798V38.8485C73.7398 38.8799 73.8542 38.8977 73.9695 38.9014C74.0589 38.906 74.1483 38.8911 74.2314 38.8577C74.3145 38.8243 74.3893 38.7733 74.4507 38.7081C74.5962 38.524 74.7035 38.3127 74.766 38.0865L72.51 33.6019H73.9534L75.3945 36.5395ZM70.2447 34.6471H69.0936C69.0965 35.4791 69.0542 36.3106 68.967 37.138C68.9062 37.84 68.7132 38.5243 68.3984 39.1547C68.2898 39.4074 68.1082 39.622 67.8769 39.7709C67.6455 39.9198 67.375 39.9962 67.1 39.9903C66.9187 39.9911 66.7395 39.9518 66.5751 39.8752V38.8439C66.7405 38.8521 66.9042 38.8065 67.0415 38.714C67.1789 38.6214 67.2826 38.4869 67.3371 38.3305C67.5144 37.9262 67.6233 37.4952 67.6594 37.0551C67.7077 36.574 67.7354 35.9915 67.7469 35.3101C67.7584 35.1766 67.7653 34.9809 67.7653 34.7231C67.7653 34.6126 67.7653 34.5113 67.7653 34.4169C67.7653 34.3225 67.7653 34.2051 67.7653 34.0601V33.6134H71.5684V39.8568H70.2309L70.2447 34.6471ZM65.9075 34.3225L65.233 35.1444C64.7495 34.7192 64.2661 34.5389 63.7826 34.6034C63.571 34.6376 63.3679 34.7119 63.1841 34.8221C62.9336 34.9788 62.7344 35.2052 62.6108 35.4736C62.4335 35.8669 62.3545 36.2975 62.3806 36.7282C62.399 37.4557 62.5525 37.9668 62.8411 38.2614C63.0884 38.5359 63.4208 38.7191 63.7849 38.7817C64.3282 38.8692 64.8531 38.6275 65.3596 38.0565L66.1101 38.7219C65.424 39.566 64.6083 39.9888 63.6629 39.9903C63.138 39.9982 62.6218 39.8552 62.1757 39.5783C61.7292 39.2937 61.3718 38.8892 61.1444 38.4111C60.8902 37.893 60.7647 37.3213 60.7784 36.7443C60.7937 35.6562 61.1114 34.8343 61.7314 34.2788C62.305 33.7424 63.0617 33.4451 63.8471 33.4477C64.2425 33.4451 64.6342 33.5234 64.9981 33.6779C65.3439 33.8273 65.6539 34.0486 65.9075 34.3271V34.3225Z" fill="#E3000F"/>
</svg>
