<svg width="24" height="24" viewBox="0 0 24 24" fill="none" xmlns="http://www.w3.org/2000/svg">
<path fill-rule="evenodd" clip-rule="evenodd" d="M0 12C0 5.37258 5.37258 0 12 0C18.6274 0 24 5.37258 24 12C24 18.6274 18.6274 24 12 24C5.37258 24 0 18.6274 0 12Z" fill="#FF3366"/>
<path fill-rule="evenodd" clip-rule="evenodd" d="M12.0005 6C10.371 6 10.1665 6.00713 9.5265 6.03625C8.88775 6.0655 8.45175 6.16663 8.07025 6.315C7.67563 6.46825 7.34088 6.67325 7.00738 7.00688C6.67363 7.34038 6.46863 7.67513 6.31488 8.06963C6.16613 8.45125 6.06488 8.88738 6.03613 9.52588C6.0075 10.1659 6 10.3705 6 12C6 13.6295 6.00725 13.8334 6.03625 14.4734C6.06563 15.1121 6.16675 15.5481 6.315 15.9296C6.46838 16.3243 6.67338 16.659 7.007 16.9925C7.34038 17.3263 7.67513 17.5318 8.0695 17.685C8.45125 17.8334 8.88738 17.9345 9.526 17.9638C10.166 17.9929 10.3704 18 11.9998 18C13.6294 18 13.8333 17.9929 14.4733 17.9638C15.112 17.9345 15.5485 17.8334 15.9303 17.685C16.3248 17.5318 16.659 17.3263 16.9924 16.9925C17.3261 16.659 17.5311 16.3243 17.6849 15.9298C17.8324 15.5481 17.9336 15.112 17.9636 14.4735C17.9924 13.8335 17.9999 13.6295 17.9999 12C17.9999 10.3705 17.9924 10.166 17.9636 9.526C17.9336 8.88725 17.8324 8.45125 17.6849 8.06975C17.5311 7.67513 17.3261 7.34038 16.9924 7.00688C16.6586 6.67313 16.3249 6.46813 15.9299 6.315C15.5474 6.16663 15.1111 6.0655 14.4724 6.03625C13.8324 6.00713 13.6286 6 11.9986 6H12.0005ZM11.4622 7.08127C11.622 7.08102 11.8002 7.08127 12.0005 7.08127C13.6025 7.08127 13.7924 7.08702 14.425 7.11577C15.01 7.14252 15.3275 7.24027 15.539 7.3224C15.819 7.43115 16.0186 7.56115 16.2285 7.77115C16.4385 7.98115 16.5685 8.18115 16.6775 8.46115C16.7596 8.6724 16.8575 8.9899 16.8841 9.5749C16.9129 10.2074 16.9191 10.3974 16.9191 11.9986C16.9191 13.5999 16.9129 13.7899 16.8841 14.4224C16.8574 15.0074 16.7596 15.3249 16.6775 15.5361C16.5687 15.8161 16.4385 16.0155 16.2285 16.2254C16.0185 16.4354 15.8191 16.5654 15.539 16.6741C15.3277 16.7566 15.01 16.8541 14.425 16.8809C13.7925 16.9096 13.6025 16.9159 12.0005 16.9159C10.3984 16.9159 10.2085 16.9096 9.57599 16.8809C8.99099 16.8539 8.67349 16.7561 8.46187 16.674C8.18187 16.5653 7.98187 16.4353 7.77187 16.2253C7.56187 16.0153 7.43187 15.8158 7.32287 15.5356C7.24074 15.3244 7.14287 15.0069 7.11624 14.4219C7.08749 13.7894 7.08174 13.5994 7.08174 11.9971C7.08174 10.3949 7.08749 10.2059 7.11624 9.5734C7.14299 8.9884 7.24074 8.6709 7.32287 8.4594C7.43162 8.1794 7.56187 7.9794 7.77187 7.7694C7.98187 7.5594 8.18187 7.4294 8.46187 7.3204C8.67337 7.2379 8.99099 7.1404 9.57599 7.11352C10.1295 7.08852 10.344 7.08102 11.4622 7.07977V7.08127ZM15.2032 8.07758C14.8057 8.07758 14.4832 8.39971 14.4832 8.79733C14.4832 9.19483 14.8057 9.51733 15.2032 9.51733C15.6007 9.51733 15.9232 9.19483 15.9232 8.79733C15.9232 8.39983 15.6007 8.07733 15.2032 8.07733V8.07758ZM12.0005 8.9187C10.2989 8.9187 8.91925 10.2983 8.91925 12C8.91925 13.7016 10.2989 15.0806 12.0005 15.0806C13.7021 15.0806 15.0813 13.7016 15.0813 12C15.0813 10.2983 13.702 8.9187 12.0004 8.9187H12.0005ZM12.0005 9.99994C13.105 9.99994 14.0005 10.8953 14.0005 11.9999C14.0005 13.1044 13.105 13.9999 12.0005 13.9999C10.8959 13.9999 10.0005 13.1044 10.0005 11.9999C10.0005 10.8953 10.8959 9.99994 12.0005 9.99994V9.99994Z" fill="white"/>
</svg>
