<svg width="32" height="32" viewBox="0 0 32 32" fill="none" xmlns="http://www.w3.org/2000/svg">
<path fill-rule="evenodd" clip-rule="evenodd" d="M0 16C0 7.16344 7.16344 0 16 0C24.8366 0 32 7.16344 32 16C32 24.8366 24.8366 32 16 32C7.16344 32 0 24.8366 0 16Z" fill="#24378F"/>
<path fill-rule="evenodd" clip-rule="evenodd" d="M16.0007 8C13.828 8 13.5553 8.0095 12.702 8.04833C11.8503 8.08733 11.269 8.22217 10.7603 8.42C10.2342 8.62433 9.78783 8.89767 9.34317 9.3425C8.89817 9.78717 8.62483 10.2335 8.41983 10.7595C8.2215 11.2683 8.0865 11.8498 8.04817 12.7012C8.01 13.5545 8 13.8273 8 16C8 18.1727 8.00967 18.4445 8.04833 19.2978C8.0875 20.1495 8.22233 20.7308 8.42 21.2395C8.6245 21.7657 8.89783 22.212 9.34267 22.6567C9.78717 23.1017 10.2335 23.3757 10.7593 23.58C11.2683 23.7778 11.8498 23.9127 12.7013 23.9517C13.5547 23.9905 13.8272 24 15.9997 24C18.1725 24 18.4443 23.9905 19.2977 23.9517C20.1493 23.9127 20.7313 23.7778 21.2403 23.58C21.7663 23.3757 22.212 23.1017 22.6565 22.6567C23.1015 22.212 23.3748 21.7657 23.5798 21.2397C23.7765 20.7308 23.9115 20.1493 23.9515 19.298C23.9898 18.4447 23.9998 18.1727 23.9998 16C23.9998 13.8273 23.9898 13.5547 23.9515 12.7013C23.9115 11.8497 23.7765 11.2683 23.5798 10.7597C23.3748 10.2335 23.1015 9.78717 22.6565 9.3425C22.2115 8.8975 21.7665 8.62417 21.2398 8.42C20.7298 8.22217 20.1482 8.08733 19.2965 8.04833C18.4432 8.0095 18.1715 8 15.9982 8H16.0007ZM15.283 9.44167C15.496 9.44133 15.7337 9.44167 16.0007 9.44167C18.1367 9.44167 18.3898 9.44933 19.2333 9.48767C20.0133 9.52333 20.4367 9.65367 20.7187 9.76317C21.092 9.90817 21.3582 10.0815 21.638 10.3615C21.918 10.6415 22.0913 10.9082 22.2367 11.2815C22.3462 11.5632 22.4767 11.9865 22.5122 12.7665C22.5505 13.6098 22.5588 13.8632 22.5588 15.9982C22.5588 18.1332 22.5505 18.3865 22.5122 19.2298C22.4765 20.0098 22.3462 20.4332 22.2367 20.7148C22.0917 21.0882 21.918 21.354 21.638 21.6338C21.358 21.9138 21.0922 22.0872 20.7187 22.2322C20.437 22.3422 20.0133 22.4722 19.2333 22.5078C18.39 22.5462 18.1367 22.5545 16.0007 22.5545C13.8645 22.5545 13.6113 22.5462 12.768 22.5078C11.988 22.4718 11.5647 22.3415 11.2825 22.232C10.9092 22.087 10.6425 21.9137 10.3625 21.6337C10.0825 21.3537 9.90917 21.0877 9.76383 20.7142C9.65433 20.4325 9.52383 20.0092 9.48833 19.2292C9.45 18.3858 9.44233 18.1325 9.44233 15.9962C9.44233 13.8598 9.45 13.6078 9.48833 12.7645C9.524 11.9845 9.65433 11.5612 9.76383 11.2792C9.90883 10.9058 10.0825 10.6392 10.3625 10.3592C10.6425 10.0792 10.9092 9.90583 11.2825 9.7605C11.5645 9.6505 11.988 9.5205 12.768 9.48467C13.506 9.45133 13.792 9.44133 15.283 9.43967V9.44167ZM20.271 10.77C19.741 10.77 19.311 11.1995 19.311 11.7297C19.311 12.2597 19.741 12.6897 20.271 12.6897C20.801 12.6897 21.231 12.2597 21.231 11.7297C21.231 11.1997 20.801 10.7697 20.271 10.7697V10.77ZM16.0007 11.8917C13.7318 11.8917 11.8923 13.7312 11.8923 16C11.8923 18.2688 13.7318 20.1075 16.0007 20.1075C18.2695 20.1075 20.1083 18.2688 20.1083 16C20.1083 13.7312 18.2693 11.8917 16.0005 11.8917H16.0007ZM16.0007 13.3333C17.4733 13.3333 18.6673 14.5272 18.6673 16C18.6673 17.4727 17.4733 18.6667 16.0007 18.6667C14.5278 18.6667 13.334 17.4727 13.334 16C13.334 14.5272 14.5278 13.3333 16.0007 13.3333Z" fill="white"/>
</svg>
