<svg width="24" height="24" viewBox="0 0 24 24" fill="none" xmlns="http://www.w3.org/2000/svg">
<path fill-rule="evenodd" clip-rule="evenodd" d="M12 24C18.6274 24 24 18.6274 24 12C24 5.37258 18.6274 0 12 0C5.37258 0 0 5.37258 0 12C0 18.6274 5.37258 24 12 24Z" fill="#25D366"/>
<path fill-rule="evenodd" clip-rule="evenodd" d="M12.3955 18.6763H12.3926C11.1984 18.6759 10.0249 18.3762 8.98269 17.8077L5.20001 18.8L6.21232 15.1024C5.58788 14.0203 5.2593 12.7928 5.25984 11.5351C5.2614 7.60087 8.46242 4.40002 12.3955 4.40002C14.3043 4.40085 16.0959 5.14396 17.4431 6.49273C18.7903 7.84143 19.5318 9.63419 19.5311 11.5408C19.5295 15.4742 16.3298 18.6747 12.3955 18.6763V18.6763ZM9.15793 16.516L9.3745 16.6446C10.2851 17.1849 11.3289 17.4708 12.3931 17.4713H12.3955C15.6644 17.4713 18.325 14.8106 18.3263 11.5404C18.3269 9.95568 17.7106 8.46562 16.5908 7.34457C15.4711 6.22353 13.982 5.60585 12.3979 5.6053C9.12646 5.6053 6.46589 8.26563 6.46459 11.5356C6.46413 12.6563 6.77768 13.7476 7.37137 14.6919L7.51238 14.9163L6.91324 17.1049L9.15793 16.516ZM15.9904 13.2377C15.9458 13.1633 15.827 13.1187 15.6487 13.0294C15.4704 12.9402 14.5938 12.5089 14.4304 12.4493C14.267 12.3898 14.1481 12.3601 14.0292 12.5386C13.9104 12.717 13.5687 13.1187 13.4647 13.2377C13.3607 13.3566 13.2567 13.3716 13.0784 13.2823C12.9001 13.193 12.3257 13.0048 11.6446 12.3973C11.1146 11.9245 10.7568 11.3407 10.6528 11.1622C10.5488 10.9837 10.6417 10.8873 10.7309 10.7984C10.8112 10.7184 10.9092 10.5901 10.9984 10.486C11.0875 10.3819 11.1172 10.3075 11.1767 10.1886C11.2361 10.0695 11.2064 9.96544 11.1618 9.87619C11.1172 9.78694 10.7607 8.90934 10.6121 8.55234C10.4674 8.20468 10.3204 8.25177 10.2109 8.24628C10.1071 8.24106 9.98807 8.23997 9.86923 8.23997C9.75037 8.23997 9.5572 8.28459 9.39378 8.46309C9.23035 8.64159 8.76976 9.07294 8.76976 9.95048C8.76976 10.8281 9.40863 11.6759 9.49778 11.7949C9.58692 11.9139 10.755 13.7147 12.5436 14.487C12.9689 14.6707 13.301 14.7804 13.56 14.8626C13.9871 14.9983 14.3758 14.9792 14.683 14.9333C15.0255 14.8821 15.7378 14.502 15.8865 14.0855C16.035 13.669 16.035 13.312 15.9904 13.2377V13.2377Z" fill="#FDFDFD"/>
</svg>
