<svg width="16" height="16" viewBox="0 0 16 16" fill="none" xmlns="http://www.w3.org/2000/svg">
<path d="M8.00026 15.9999C12.4183 15.9999 15.9999 12.4184 15.9999 8.00027C15.9999 3.58218 12.4183 0.000610352 8.00026 0.000610352C3.58217 0.000610352 0.000610352 3.58218 0.000610352 8.00027C0.000610352 12.4184 3.58217 15.9999 8.00026 15.9999Z" fill="white"/>
<path d="M15.543 5.33264H10.6139C10.828 7.04157 10.8293 8.92456 10.618 10.6356H15.5535C15.8416 9.81015 16 8.92368 16 8.00005C16.0001 7.0643 15.838 6.16696 15.543 5.33264Z" fill="#2B479D"/>
<path d="M10.6137 5.33265H15.5426C15.5419 5.33012 15.5411 5.32799 15.5401 5.32569C14.5163 2.43878 11.8826 0.314783 8.71826 0.0328369C9.94292 0.704075 10.3006 2.83074 10.6137 5.33265Z" fill="#EFECEC"/>
<path d="M8.71875 15.9668C11.8888 15.6843 14.5261 13.553 15.546 10.6584C15.5486 10.6507 15.5509 10.6431 15.5537 10.6356H10.6182C10.3075 13.1511 9.94831 15.2927 8.71875 15.9668Z" fill="#E63026"/>
<path d="M0 8.00005C0 8.92381 0.158656 9.81015 0.446512 10.6356H11.0296C11.2411 8.92442 11.2396 7.04157 11.0257 5.33264H0.457153C0.162067 6.16699 0 7.06434 0 8.00005Z" fill="#3757A6"/>
<path d="M0.459443 5.32569C0.458699 5.32795 0.457923 5.33011 0.456909 5.33265H11.0255C10.7122 2.8307 9.94271 0.70407 8.71822 0.0328323C8.48136 0.0118561 8.24188 3.84997e-10 7.99962 3.84997e-10C4.5195 -3.37777e-05 1.56003 2.2226 0.459443 5.32569Z" fill="#EFEFEF"/>
<path d="M11.0294 10.6356H0.446289C0.448958 10.6431 0.451457 10.6507 0.45399 10.6584C1.55019 13.7694 4.51391 15.9999 7.99961 15.9999C8.2419 15.9999 8.48139 15.988 8.7182 15.9668C9.94789 15.2928 10.7188 13.1511 11.0294 10.6356Z" fill="#E73B36"/>
</svg>
